<svg xmlns="http://www.w3.org/2000/svg" viewBox="0 0 49 49" width="49" height="49">
	<style>
		tspan { white-space:pre }
		.shp0 { fill: #ffffff } 
	</style>
	<path id="phone" class="shp0" d="M48.97 36.77L48.97 46.19C48.97 47.59 47.89 48.75 46.49 48.85C45.33 48.93 44.38 48.97 43.64 48.97C20.09 48.97 1 29.88 1 6.33C1 5.59 1.04 4.64 1.12 3.48C1.22 2.08 2.38 1 3.78 1L13.2 1C13.89 1 14.46 1.51 14.53 2.2C14.59 2.81 14.65 3.3 14.7 3.67C15.23 7.36 16.32 10.96 17.92 14.33C18.17 14.86 18.01 15.5 17.53 15.84L11.78 19.95C15.29 28.15 21.83 34.68 30.02 38.19L34.12 32.45C34.47 31.97 35.11 31.8 35.65 32.06C39.02 33.66 42.62 34.74 46.31 35.27C46.68 35.32 47.17 35.38 47.78 35.44C48.46 35.51 48.98 36.08 48.98 36.77L48.97 36.77Z" />
</svg>