<svg xmlns="http://www.w3.org/2000/svg" viewBox="0 0 70 70" width="70" height="70">
	<style>
		tspan { white-space:pre }
		.shp0 { fill: #808490 } 
	</style>
	<path id="pointer" fill-rule="evenodd" class="shp0" d="M37.98 0.15L37.98 9.8C49.41 11.25 58.4 20.25 59.85 31.67L69.5 31.67L69.5 37.98L59.85 37.98C58.4 49.4 49.4 58.4 37.98 59.85L37.98 69.5L31.67 69.5L31.67 59.85C20.25 58.4 11.25 49.41 9.8 37.98L0.15 37.98L0.15 31.67L9.8 31.67C11.25 20.25 20.25 11.25 31.67 9.8L31.67 0.15L37.98 0.15ZM34.82 15.91C24.38 15.91 15.91 24.38 15.91 34.82C15.91 45.27 24.38 53.74 34.82 53.74C45.27 53.74 53.74 45.27 53.74 34.82C53.74 24.38 45.27 15.91 34.82 15.91ZM34.82 28.52C38.31 28.52 41.13 31.34 41.13 34.82C41.13 38.31 38.31 41.13 34.82 41.13C31.34 41.13 28.52 38.31 28.52 34.82C28.52 31.34 31.34 28.52 34.82 28.52Z" />
</svg>