<svg xmlns="http://www.w3.org/2000/svg" viewBox="0 0 104 115" width="104" height="115">
	<style>
		tspan { white-space:pre }
		.shp0 { fill: #f33959 } 
		.shp1 { fill: #ffffff } 
	</style>
	<path id="Path 333" class="shp0" d="M63.66 102.35L52 114.01L40.34 102.35C17.43 97.06 0.33 76.51 0.33 52C0.33 23.48 23.48 0.33 52 0.33C80.52 0.33 103.67 23.48 103.67 52C103.67 76.51 86.57 97.06 63.66 102.35L63.66 102.35Z" />
	<path id="Ellipse 53" class="shp1" d="M52.5 70C42.82 70 35 62.18 35 52.5C35 42.82 42.82 35 52.5 35C62.18 35 70 42.82 70 52.5C70 62.18 62.18 70 52.5 70Z" />
</svg>